# xmcd CD database file
#
# Track frame offsets:
#	150
#	19412
#	33657
#	47931
#	63935
#	82474
#	94037
#	112665
#	130221
#	144433
#	159612
#	180602
#	195417
#
# Disc length: 2880 seconds
#
# Revision: 0
# Processed by: cddbd v1.5.2PL0 Copyright (c) Steve Scherf et al.
# Submitted via: CDex 1.51
#
DISCID=b20b3e0d
DTITLE=Michael Buble - Crazy Love
DYEAR=2008
DGENRE=Jazz
TTITLE0=Cry Me A River
TTITLE1=All Of Me
TTITLE2=Georgia On My Mind
TTITLE3=Crazy Love
TTITLE4=Haven't Met You Yet
TTITLE5=All I Do Is Dream Of You
TTITLE6=Hold On
TTITLE7=Heartache Tonight
TTITLE8=You're Nobody Till Somebody Loves You
TTITLE9=Bab
TTITLE10=At This Moment
TTITLE11=Stardust
TTITLE12=Whatever It Takes
EXTD=YEAR: 2008
EXTT0=
EXTT1=
EXTT2=
EXTT3=
EXTT4=
EXTT5=
EXTT6=
EXTT7=
EXTT8=
EXTT9=
EXTT10=
EXTT11=
EXTT12=
PLAYORDER=
